Coordinates
version=1
nRows=19
nColumns=18
inDegrees=yes

Units are S.I. units (second, meters, Newtons, ...)
If the header above contains a line with 'inDegrees', this indicates whether rotational values are in degrees (yes) or radians (no).

endheader
time	TH_y	TH_x	TH_z	TH_x_trans	TH_y_trans	TH_z_trans	SC_y	SC_z	SC_x	AC_y	AC_z	AC_x	GH_y	GH_z	GH_yy	EL_x	PS_y
     30.00000000	     36.12894112	      0.48716413	     -0.92481628	      0.46445902	      1.37690970	     -0.27266407	    -17.39730368	    -10.16257088	    -13.61052619	     83.31782362	    -10.60280534	     -1.09724150	    -48.14605472	     57.50522923	    -15.14413218	     79.46395454	     80.89238202
     30.01000000	     36.17993128	      0.48163854	     -0.89918590	      0.46416858	      1.37695136	     -0.27251124	    -17.46129657	     -9.95454695	    -13.50288580	     83.11793971	    -10.48106354	     -1.70586202	    -48.42673307	     57.98197734	    -15.04585817	     79.31480316	     81.67627538
     30.02000000	     36.24249141	      0.49855462	     -0.85918631	      0.46391213	      1.37698917	     -0.27230178	    -17.64295159	    -10.06459836	    -13.42701240	     82.75025491	    -10.43150576	     -2.01322807	    -48.88288727	     59.26154063	    -14.30803924	     79.38611832	     80.99878163
     30.03000000	     36.24647957	      0.52816949	     -0.85399945	      0.46382420	      1.37699570	     -0.27213097	    -17.66546454	     -9.62384558	    -13.34887640	     82.56547566	    -10.29934643	     -2.35248996	    -49.12062048	     59.57256750	    -14.32813278	     79.36833135	     81.00974979
     30.04000000	     36.21388691	      0.54098482	     -0.85842876	      0.46368235	      1.37699299	     -0.27198074	    -17.66704020	     -9.18336245	    -13.22533561	     82.42932419	    -10.12048926	     -2.87288502	    -49.31935965	     59.79618559	    -14.44737456	     79.22001949	     81.95840985
     30.05000000	     36.25345248	      0.53048088	     -0.80890557	      0.46338119	      1.37703518	     -0.27182477	    -17.76414317	     -8.95460173	    -13.08039947	     82.24673636	     -9.94977149	     -3.48675852	    -49.58846982	     60.24456751	    -14.41451324	     79.19112091	     81.98698338
     30.06000000	     36.23839667	      0.51986700	     -0.77821500	      0.46313576	      1.37707149	     -0.27171336	    -17.84318819	     -8.48024240	    -12.90777718	     82.27587177	     -9.71611536	     -4.45234352	    -49.65967434	     60.10104635	    -14.83663822	     79.13110224	     81.46309603
     30.07000000	     36.29781466	      0.49649406	     -0.70946610	      0.46273341	      1.37710663	     -0.27155306	    -18.00426170	     -8.52267978	    -12.70118425	     81.95671167	     -9.52116018	     -4.92642649	    -50.07451344	     61.02312281	    -14.51904910	     79.11531159	     82.32563713
     30.08000000	     36.30167185	      0.49183069	     -0.67012480	      0.46251704	      1.37714592	     -0.27141150	    -18.07550519	     -8.49679439	    -12.51030942	     81.61772405	     -9.32818415	     -5.19485625	    -50.49772838	     62.03784510	    -14.12146884	     79.04702519	     83.25356015
     30.09000000	     36.19889837	      0.50182435	     -0.68231730	      0.46253529	      1.37716993	     -0.27133590	    -18.16966614	     -7.98095218	    -12.33660899	     81.59201569	     -9.08720349	     -5.42734034	    -50.61560173	     62.35287119	    -14.23717873	     78.87758280	     83.25859983
     30.10000000	     36.19572421	      0.49611077	     -0.63109298	      0.46230184	      1.37720257	     -0.27117107	    -18.24094450	     -7.66170590	    -12.11319565	     81.44839413	     -8.81771963	     -5.93691747	    -50.82563826	     62.65958747	    -14.38675384	     78.73737404	     84.12482669
     30.11000000	     36.13996951	      0.49842571	     -0.56507534	      0.46200397	      1.37722757	     -0.27096688	    -18.26745015	     -7.52079167	    -11.87870523	     81.24608063	     -8.55590671	     -6.57602707	    -51.09574803	     63.17441356	    -14.37363457	     78.76459884	     84.14267444
     30.12000000	     36.07938364	      0.47639499	     -0.50592625	      0.46172840	      1.37729733	     -0.27084905	    -18.28183627	     -7.20793692	    -11.65313344	     81.06610480	     -8.28341137	     -6.92112895	    -51.32383292	     63.53770284	    -14.47661249	     78.75768140	     84.16501061
     30.13000000	     36.03852805	      0.41305238	     -0.43180565	      0.46138160	      1.37739152	     -0.27081290	    -18.39434008	     -7.06689884	    -11.36437775	     80.94211512	     -7.96716060	     -7.49161085	    -51.53648169	     63.99273411	    -14.57006521	     78.67418923	     84.99933219
     30.14000000	     36.00389788	      0.36752456	     -0.37611047	      0.46111783	      1.37747860	     -0.27078436	    -18.46475508	     -6.86212821	    -11.05892887	     80.79855627	     -7.62693617	     -7.92660530	    -51.75547195	     64.43260596	    -14.69734434	     78.52650721	     85.95538159
     30.15000000	     35.95762435	      0.34314963	     -0.29471295	      0.46085796	      1.37753431	     -0.27067839	    -18.55611512	     -6.76781634	    -10.75435430	     80.66379812	     -7.29769094	     -8.50234854	    -51.97840648	     64.94636025	    -14.75873137	     78.56534131	     85.94358697
     30.16000000	     35.89636908	      0.24540260	     -0.21446802	      0.46049029	      1.37761928	     -0.27070841	    -18.66769832	     -6.59172724	    -10.40030774	     80.64297211	     -6.90483776	     -9.17246827	    -52.08746684	     65.21847400	    -15.04424664	     78.40077185	     86.64397419
     30.17000000	     35.82279596	      0.19078901	     -0.13601653	      0.46019473	      1.37766076	     -0.27064235	    -18.76793333	     -6.43428726	    -10.03596345	     80.63896903	     -6.49953057	     -9.98527416	    -52.17782991	     65.45173752	    -15.36023884	     78.24825185	     87.40168108
     30.18000000	     35.74311324	      0.11991137	     -0.05507191	      0.45991568	      1.37772683	     -0.27062118	    -18.79210354	     -6.18112568	     -9.68250981	     80.62468854	     -6.09674044	    -10.59091328	    -52.26350208	     65.66265411	    -15.68330697	     78.01796566	     88.66475305
